<svg width="2230" height="1708" viewBox="0 0 2230 1708" fill="none" xmlns="http://www.w3.org/2000/svg">
<g clip-path="url(#clip0_91_2)">
<mask id="mask0_91_2" style="mask-type:luminance" maskUnits="userSpaceOnUse" x="0" y="0" width="2230" height="1708">
<path d="M0 1708L2230 1708V0L0 0V1708Z" fill="white"/>
</mask>
<g mask="url(#mask0_91_2)">
<g style="mix-blend-mode:screen" opacity="0.2" filter="url(#filter0_f_91_2)">
<g filter="url(#filter1_f_91_2)">
<path d="M1621.34 -384.76C1494.09 -384.76 1390.92 -161.191 1390.92 114.595C1390.92 390.382 1494.09 613.951 1621.34 613.951C1748.59 613.951 1851.74 390.382 1851.74 114.595C1851.74 -161.191 1748.59 -384.76 1621.34 -384.76Z" fill="white"/>
</g>
<g filter="url(#filter2_f_91_2)">
<path d="M1367.77 -1304.5C1165.25 -1304.5 1001.08 -944.845 1001.08 -501.193C1001.08 -57.5406 1165.25 302.112 1367.77 302.112C1570.29 302.112 1734.46 -57.5407 1734.46 -501.193C1734.46 -944.845 1570.29 -1304.5 1367.77 -1304.5Z" fill="#151D30"/>
</g>
<g filter="url(#filter3_f_91_2)">
<path d="M709.374 -274.792C512.693 -274.792 353.25 123.113 353.25 613.953C353.25 1104.79 512.693 1502.7 709.374 1502.7C906.055 1502.7 1065.5 1104.79 1065.5 613.953C1065.5 123.113 906.055 -274.792 709.374 -274.792Z" fill="#55BAE9"/>
</g>
<g filter="url(#filter4_f_91_2)">
<path d="M1367.77 130.481C1123.38 130.481 925.268 403.775 925.268 740.9C925.268 1078.02 1123.38 1351.31 1367.77 1351.31C1612.16 1351.31 1810.27 1078.02 1810.27 740.9C1810.27 403.775 1612.16 130.481 1367.77 130.481Z" fill="#004D8D"/>
</g>
</g>
</g>
</g>
<defs>
<filter id="filter0_f_91_2" x="-56.3135" y="-1714.06" width="2317.62" height="3626.32" filterUnits="userSpaceOnUse" color-interpolation-filters="sRGB">
<feFlood flood-opacity="0" result="BackgroundImageFix"/>
<feBlend mode="normal" in="SourceGraphic" in2="BackgroundImageFix" result="shape"/>
<feGaussianBlur stdDeviation="204.782" result="effect1_foregroundBlur_91_2"/>
</filter>
<filter id="filter1_f_91_2" x="1192.71" y="-582.97" width="857.237" height="1395.13" filterUnits="userSpaceOnUse" color-interpolation-filters="sRGB">
<feFlood flood-opacity="0" result="BackgroundImageFix"/>
<feBlend mode="normal" in="SourceGraphic" in2="BackgroundImageFix" result="shape"/>
<feGaussianBlur stdDeviation="99.1051" result="effect1_foregroundBlur_91_2"/>
</filter>
<filter id="filter2_f_91_2" x="863.54" y="-1442.04" width="1008.46" height="1881.69" filterUnits="userSpaceOnUse" color-interpolation-filters="sRGB">
<feFlood flood-opacity="0" result="BackgroundImageFix"/>
<feBlend mode="normal" in="SourceGraphic" in2="BackgroundImageFix" result="shape"/>
<feGaussianBlur stdDeviation="68.7699" result="effect1_foregroundBlur_91_2"/>
</filter>
<filter id="filter3_f_91_2" x="276.839" y="-351.203" width="865.068" height="1930.31" filterUnits="userSpaceOnUse" color-interpolation-filters="sRGB">
<feFlood flood-opacity="0" result="BackgroundImageFix"/>
<feBlend mode="normal" in="SourceGraphic" in2="BackgroundImageFix" result="shape"/>
<feGaussianBlur stdDeviation="38.2055" result="effect1_foregroundBlur_91_2"/>
</filter>
<filter id="filter4_f_91_2" x="808.512" y="13.7252" width="1118.51" height="1454.35" filterUnits="userSpaceOnUse" color-interpolation-filters="sRGB">
<feFlood flood-opacity="0" result="BackgroundImageFix"/>
<feBlend mode="normal" in="SourceGraphic" in2="BackgroundImageFix" result="shape"/>
<feGaussianBlur stdDeviation="58.378" result="effect1_foregroundBlur_91_2"/>
</filter>
<clipPath id="clip0_91_2">
<rect width="2230" height="1708" fill="white"/>
</clipPath>
</defs>
</svg>
