<svg width="1512" height="75" viewBox="0 0 1512 75" fill="none" xmlns="http://www.w3.org/2000/svg">
<path d="M-111.394 73.0629L100.759 73.1871C117.506 73.1969 131.09 59.6282 131.1 42.8807V42.8807C131.109 26.1333 144.694 12.5646 161.441 12.5744L1337.85 13.2629C1346.47 13.268 1353.45 20.2558 1353.44 28.8708V28.8708C1353.44 37.4858 1360.42 44.4736 1369.03 44.4786L1572.05 44.5974" stroke="url(#paint0_linear_54_205)" stroke-width="2"/>
<rect x="396.489" y="5.64221" width="60.0244" height="21.5089" rx="10.7545" transform="rotate(0.033533 396.489 5.64221)" fill="#06101D" stroke="#183244"/>
<path opacity="0.3" d="M409.067 19.4009L411.384 12.6973L412.968 12.6982L415.277 19.4046L413.945 19.4038L413.469 17.9635L410.877 17.962L410.39 19.4017L409.067 19.4009ZM411.228 16.8822L413.118 16.8833L412.004 13.5436L412.346 13.5438L411.228 16.8822ZM415.924 19.4049L415.928 12.5919L417.107 12.5926L417.103 19.4056L415.924 19.4049ZM420.424 19.4616C419.872 19.4612 419.443 19.311 419.137 19.0108C418.837 18.7046 418.687 18.2755 418.688 17.7235L418.689 15.5635L417.843 15.5631L417.844 14.5101L417.934 14.5101C418.174 14.5102 418.36 14.4474 418.492 14.3214C418.624 14.1955 418.69 14.0125 418.69 13.7725L418.69 13.3945L419.869 13.3952L419.869 14.5112L420.994 14.5119L420.993 15.5649L419.868 15.5642L419.867 17.6612C419.867 17.8232 419.894 17.9613 419.948 18.0753C420.007 18.1893 420.097 18.2764 420.217 18.3364C420.343 18.3965 420.502 18.4266 420.694 18.4267C420.736 18.4267 420.784 18.4238 420.838 18.4178C420.898 18.4118 420.955 18.4059 421.009 18.3999L421.009 19.4079C420.925 19.4199 420.829 19.4318 420.721 19.4437C420.613 19.4557 420.514 19.4616 420.424 19.4616ZM425.158 19.5183C424.678 19.5181 424.235 19.4308 423.827 19.2566C423.425 19.0823 423.071 18.8391 422.765 18.5269C422.465 18.2148 422.231 17.8486 422.064 17.4285C421.896 17.0084 421.812 16.5494 421.813 16.0514C421.813 15.5534 421.894 15.0944 422.056 14.6745C422.225 14.2486 422.459 13.8828 422.759 13.5769C423.065 13.2651 423.422 13.0253 423.83 12.8576C424.238 12.6838 424.683 12.5971 425.163 12.5973C425.643 12.5976 426.071 12.6789 426.449 12.8411C426.833 13.0033 427.157 13.2195 427.421 13.4897C427.685 13.7538 427.874 14.0449 427.988 14.363L426.889 14.8753C426.763 14.5393 426.551 14.2631 426.251 14.047C425.951 13.8248 425.588 13.7136 425.162 13.7133C424.742 13.7131 424.37 13.8119 424.046 14.0097C423.728 14.2075 423.478 14.4804 423.298 14.8282C423.124 15.1761 423.037 15.5841 423.037 16.0521C423.036 16.5201 423.123 16.9311 423.297 17.2852C423.477 17.6334 423.725 17.9065 424.043 18.1047C424.367 18.3029 424.739 18.4021 425.159 18.4023C425.585 18.4026 425.948 18.2948 426.248 18.079C426.548 17.8571 426.762 17.5783 426.888 17.2423L427.986 17.756C427.871 18.0739 427.682 18.3678 427.418 18.6377C427.154 18.9015 426.83 19.1143 426.446 19.2761C426.068 19.4379 425.638 19.5186 425.158 19.5183ZM431.185 19.5219C430.705 19.5216 430.267 19.4103 429.872 19.1881C429.482 18.9659 429.17 18.6627 428.936 18.2785C428.708 17.8944 428.595 17.4563 428.595 16.9643C428.595 16.4723 428.709 16.0344 428.938 15.6505C429.172 15.2667 429.484 14.9639 429.874 14.7421C430.264 14.5203 430.702 14.4096 431.188 14.4099C431.668 14.4101 432.103 14.5214 432.493 14.7436C432.883 14.9659 433.192 15.269 433.42 15.6532C433.653 16.0313 433.77 16.4694 433.77 16.9674C433.77 17.4594 433.652 17.8973 433.418 18.2812C433.184 18.665 432.872 18.9678 432.482 19.1896C432.091 19.4114 431.659 19.5221 431.185 19.5219ZM431.186 18.4419C431.45 18.442 431.681 18.3792 431.879 18.2533C432.083 18.1274 432.242 17.9535 432.356 17.7315C432.477 17.5036 432.537 17.2487 432.537 16.9667C432.537 16.6787 432.477 16.4266 432.357 16.2105C432.243 15.9885 432.084 15.8144 431.881 15.6883C431.683 15.5562 431.452 15.49 431.188 15.4899C430.918 15.4897 430.681 15.5556 430.477 15.6874C430.272 15.8133 430.11 15.9872 429.99 16.2092C429.876 16.4251 429.819 16.6771 429.819 16.9651C429.819 17.2471 429.876 17.5021 429.989 17.7302C430.109 17.9522 430.271 18.1263 430.475 18.2524C430.679 18.3786 430.916 18.4417 431.186 18.4419ZM434.662 19.4159L434.665 14.5199L435.844 14.5206L435.841 19.4166L434.662 19.4159ZM434.666 13.9709L434.666 12.7109L435.845 12.7116L435.845 13.9716L434.666 13.9709ZM436.93 19.4172L436.933 14.5212L438.04 14.5219L438.039 15.4849L437.949 15.3138C438.064 15.0199 438.25 14.798 438.508 14.6481C438.772 14.4923 439.078 14.4145 439.426 14.4147C439.786 14.4149 440.104 14.4931 440.38 14.6492C440.662 14.8054 440.881 15.0245 441.036 15.3066C441.192 15.5827 441.27 15.9038 441.27 16.2698L441.268 19.4198L440.089 19.4191L440.091 16.5481C440.091 16.3321 440.049 16.146 439.965 15.99C439.881 15.834 439.764 15.7139 439.614 15.6298C439.47 15.5397 439.299 15.4946 439.101 15.4945C438.909 15.4944 438.738 15.5393 438.588 15.6292C438.438 15.7131 438.321 15.833 438.237 15.989C438.153 16.1449 438.111 16.3309 438.111 16.5469L438.109 19.4179L436.93 19.4172ZM444.128 19.5294C443.606 19.5291 443.15 19.4059 442.76 19.1596C442.376 18.9074 442.113 18.5683 441.969 18.1422L442.851 17.7197C442.977 17.9958 443.151 18.2119 443.373 18.368C443.601 18.5241 443.852 18.6023 444.128 18.6024C444.344 18.6026 444.516 18.5547 444.642 18.4587C444.768 18.3628 444.831 18.2368 444.831 18.0808C444.831 17.9848 444.804 17.9068 444.75 17.8468C444.702 17.7808 444.633 17.7267 444.543 17.6847C444.459 17.6366 444.366 17.5976 444.264 17.5675L443.463 17.342C443.049 17.2218 442.734 17.0386 442.519 16.7925C442.309 16.5464 442.204 16.2553 442.204 15.9193C442.204 15.6193 442.279 15.3584 442.43 15.1364C442.586 14.9085 442.799 14.7317 443.069 14.6058C443.345 14.48 443.66 14.4172 444.014 14.4174C444.476 14.4176 444.884 14.5289 445.238 14.7511C445.592 14.9733 445.843 15.2854 445.993 15.6875L445.093 16.11C445.009 15.888 444.868 15.7109 444.67 15.5788C444.472 15.4466 444.25 15.3805 444.004 15.3804C443.806 15.3802 443.65 15.4252 443.536 15.5151C443.422 15.605 443.365 15.722 443.365 15.866C443.365 15.956 443.389 16.034 443.437 16.1C443.485 16.1661 443.551 16.2201 443.635 16.2621C443.725 16.3042 443.827 16.3433 443.941 16.3793L444.724 16.6138C445.126 16.734 445.434 16.9142 445.65 17.1543C445.872 17.3945 445.983 17.6885 445.983 18.0365C445.983 18.3305 445.905 18.5915 445.748 18.8194C445.592 19.0413 445.376 19.2152 445.1 19.341C444.824 19.4668 444.5 19.5297 444.128 19.5294Z" fill="white"/>
<rect x="102.586" y="31.6826" width="60.0244" height="21.5089" rx="10.7545" transform="rotate(0.033533 102.586 31.6826)" fill="#06101D" stroke="#183244"/>
<path opacity="0.3" d="M124.541 45.4468L124.545 38.7418L126.732 38.7431C127.44 38.7435 128.055 38.8879 128.577 39.1762C129.104 39.4585 129.512 39.8517 129.8 40.3559C130.088 40.8541 130.231 41.4331 130.231 42.0931C130.23 42.7471 130.086 43.3291 129.798 43.8389C129.51 44.3427 129.101 44.7385 128.573 45.0262C128.051 45.3079 127.436 45.4485 126.728 45.4481L124.541 45.4468ZM125.766 44.3675L126.756 44.3681C127.212 44.3684 127.605 44.2756 127.935 44.0898C128.271 43.898 128.532 43.6341 128.718 43.2983C128.904 42.9564 128.998 42.5544 128.998 42.0924C128.998 41.6244 128.905 41.2224 128.72 40.8863C128.534 40.5501 128.273 40.289 127.937 40.1028C127.607 39.9166 127.214 39.8234 126.758 39.8231L125.768 39.8225L125.766 44.3675ZM133.426 45.56C132.922 45.5597 132.481 45.4455 132.103 45.2172C131.725 44.989 131.431 44.6798 131.222 44.2897C131.012 43.8996 130.907 43.4675 130.907 42.9935C130.908 42.5015 131.013 42.0666 131.223 41.6887C131.439 41.3048 131.731 41.002 132.097 40.7802C132.469 40.5584 132.883 40.4477 133.339 40.448C133.723 40.4482 134.059 40.5114 134.347 40.6375C134.641 40.7637 134.89 40.9379 135.093 41.16C135.297 41.3821 135.453 41.6372 135.561 41.9253C135.669 42.2073 135.723 42.5134 135.723 42.8434C135.722 42.9274 135.716 43.0144 135.704 43.1043C135.698 43.1943 135.683 43.2723 135.659 43.3383L131.879 43.3361L131.88 42.4361L134.994 42.4379L134.436 42.8606C134.49 42.5846 134.475 42.3386 134.391 42.1226C134.313 41.9065 134.181 41.7355 133.995 41.6093C133.815 41.4832 133.596 41.4201 133.338 41.42C133.092 41.4198 132.873 41.4827 132.681 41.6086C132.489 41.7285 132.342 41.9084 132.24 42.1483C132.144 42.3823 132.108 42.6672 132.131 43.0033C132.107 43.3032 132.146 43.5703 132.248 43.8043C132.356 44.0324 132.512 44.2095 132.716 44.3356C132.926 44.4617 133.166 44.5249 133.436 44.525C133.706 44.5252 133.934 44.4683 134.12 44.3544C134.312 44.2405 134.462 44.0876 134.57 43.8957L135.524 44.3642C135.427 44.5982 135.277 44.8051 135.073 44.985C134.869 45.1649 134.626 45.3057 134.344 45.4075C134.068 45.5094 133.762 45.5602 133.426 45.56ZM136.714 45.4539L136.718 38.7489L141.191 38.7516L141.19 39.8316L137.941 39.8297L137.94 41.6837L140.784 41.6853L140.783 42.7653L137.939 42.7637L137.938 45.4547L136.714 45.4539ZM141.888 45.457L141.891 40.561L143.07 40.5617L143.067 45.4577L141.888 45.457ZM141.891 40.012L141.892 38.752L143.071 38.7527L143.07 40.0127L141.891 40.012Z" fill="white"/>
<rect x="1111.59" y="1.3844" width="60.0244" height="21.5089" rx="10.7545" transform="rotate(0.033533 1111.59 1.3844)" fill="#06101D" stroke="#183244"/>
<path opacity="0.3" d="M1119.12 15.1401L1119.12 8.43515L1121.95 8.4368C1122.39 8.43706 1122.77 8.51528 1123.08 8.67147C1123.4 8.82165 1123.64 9.03779 1123.81 9.31989C1123.98 9.59599 1124.07 9.93205 1124.07 10.328C1124.07 10.634 1123.99 10.922 1123.82 11.1919C1123.66 11.4558 1123.39 11.6746 1123.03 11.8484L1123.03 11.2814C1123.36 11.4076 1123.63 11.5638 1123.82 11.7499C1124.01 11.936 1124.14 12.1431 1124.22 12.3711C1124.3 12.5992 1124.34 12.8392 1124.34 13.0912C1124.34 13.7332 1124.12 14.2371 1123.7 14.6028C1123.28 14.9626 1122.69 15.1422 1121.94 15.1418L1119.12 15.1401ZM1120.34 14.0609L1122.07 14.0619C1122.39 14.0621 1122.64 13.9752 1122.83 13.8013C1123.02 13.6214 1123.11 13.3845 1123.11 13.0905C1123.11 12.7965 1123.02 12.5594 1122.83 12.3793C1122.64 12.1992 1122.39 12.1091 1122.07 12.1089L1120.34 12.1079L1120.34 14.0609ZM1120.34 11.0369L1122.01 11.0378C1122.26 11.038 1122.46 10.9661 1122.61 10.8222C1122.76 10.6723 1122.84 10.4803 1122.84 10.2463C1122.84 10.0123 1122.76 9.82628 1122.61 9.68819C1122.46 9.5501 1122.26 9.48099 1122.01 9.48084L1120.34 9.47986L1120.34 11.0369ZM1125.24 15.1437L1125.24 8.33073L1126.42 8.33142L1126.42 15.1444L1125.24 15.1437ZM1129.9 15.2545C1129.42 15.2542 1128.98 15.1429 1128.59 14.9207C1128.2 14.6985 1127.89 14.3953 1127.65 14.0111C1127.43 13.627 1127.31 13.1889 1127.31 12.6969C1127.31 12.2049 1127.43 11.767 1127.65 11.3831C1127.89 10.9993 1128.2 10.6965 1128.59 10.4747C1128.98 10.2529 1129.42 10.1422 1129.91 10.1425C1130.39 10.1427 1130.82 10.254 1131.21 10.4762C1131.6 10.6985 1131.91 11.0016 1132.14 11.3858C1132.37 11.7639 1132.49 12.202 1132.49 12.7C1132.49 13.192 1132.37 13.6299 1132.13 14.0138C1131.9 14.3976 1131.59 14.7004 1131.2 14.9222C1130.81 15.144 1130.38 15.2547 1129.9 15.2545ZM1129.9 14.1745C1130.17 14.1746 1130.4 14.1117 1130.6 13.9859C1130.8 13.86 1130.96 13.6861 1131.07 13.4641C1131.19 13.2362 1131.25 12.9812 1131.25 12.6992C1131.25 12.4112 1131.19 12.1592 1131.07 11.9431C1130.96 11.7211 1130.8 11.547 1130.6 11.4209C1130.4 11.2887 1130.17 11.2226 1129.9 11.2225C1129.63 11.2223 1129.4 11.2882 1129.19 11.42C1128.99 11.5459 1128.83 11.7198 1128.71 11.9418C1128.59 12.1577 1128.54 12.4097 1128.54 12.6977C1128.54 12.9797 1128.59 13.2347 1128.71 13.4628C1128.83 13.6848 1128.99 13.8589 1129.19 13.985C1129.4 14.1112 1129.63 14.1743 1129.9 14.1745ZM1135.74 15.2579C1135.25 15.2576 1134.81 15.1463 1134.42 14.9241C1134.04 14.6959 1133.74 14.3897 1133.51 14.0056C1133.29 13.6154 1133.18 13.1774 1133.18 12.6914C1133.18 12.2054 1133.29 11.7704 1133.52 11.3866C1133.74 11.0027 1134.04 10.6999 1134.43 10.4781C1134.82 10.2563 1135.25 10.1456 1135.74 10.1459C1136.09 10.1461 1136.41 10.2093 1136.71 10.3354C1137.01 10.4556 1137.27 10.6238 1137.49 10.8399C1137.71 11.05 1137.87 11.3021 1137.96 11.5962L1136.93 12.0456C1136.84 11.7995 1136.68 11.6014 1136.47 11.4513C1136.26 11.3012 1136.02 11.226 1135.74 11.2259C1135.48 11.2257 1135.25 11.2886 1135.05 11.4145C1134.85 11.5404 1134.69 11.7143 1134.58 11.9362C1134.46 12.1581 1134.41 12.4131 1134.41 12.7011C1134.41 12.9891 1134.46 13.2441 1134.58 13.4662C1134.69 13.6883 1134.85 13.8624 1135.04 13.9885C1135.25 14.1146 1135.48 14.1777 1135.74 14.1779C1136.02 14.178 1136.27 14.1032 1136.48 13.9533C1136.69 13.8034 1136.84 13.6025 1136.93 13.3506L1137.96 13.8192C1137.86 14.0951 1137.71 14.344 1137.49 14.5659C1137.28 14.7818 1137.02 14.9526 1136.72 15.0784C1136.42 15.1983 1136.09 15.2581 1135.74 15.2579ZM1138.85 15.1517L1138.86 8.3387L1140.04 8.33939L1140.04 12.8034L1139.59 12.6681L1141.89 10.2575L1143.36 10.2583L1141.55 12.2283L1143.39 15.1544L1142.04 15.1536L1140.44 12.6146L1141.14 12.471L1139.67 14.0542L1140.03 13.3344L1140.03 15.1524L1138.85 15.1517ZM1146.32 15.2641C1145.83 15.2638 1145.4 15.1525 1145.01 14.9303C1144.62 14.7021 1144.32 14.3959 1144.1 14.0118C1143.88 13.6216 1143.76 13.1836 1143.76 12.6976C1143.77 12.2116 1143.88 11.7766 1144.1 11.3928C1144.32 11.0089 1144.62 10.7061 1145.01 10.4843C1145.4 10.2625 1145.84 10.1518 1146.32 10.1521C1146.67 10.1523 1146.99 10.2155 1147.29 10.3416C1147.59 10.4618 1147.85 10.63 1148.07 10.8461C1148.29 11.0562 1148.45 11.3083 1148.54 11.6024L1147.51 12.0518C1147.42 11.8057 1147.27 11.6076 1147.05 11.4575C1146.84 11.3074 1146.6 11.2322 1146.32 11.2321C1146.06 11.2319 1145.83 11.2948 1145.63 11.4207C1145.43 11.5465 1145.27 11.7205 1145.16 11.9424C1145.05 12.1643 1144.99 12.4193 1144.99 12.7073C1144.99 12.9953 1145.05 13.2503 1145.16 13.4724C1145.27 13.6945 1145.43 13.8685 1145.63 13.9947C1145.83 14.1208 1146.06 14.1839 1146.32 14.1841C1146.6 14.1842 1146.85 14.1094 1147.06 13.9595C1147.27 13.8096 1147.42 13.6087 1147.51 13.3568L1148.54 13.8254C1148.45 14.1013 1148.29 14.3502 1148.07 14.5721C1147.86 14.788 1147.6 14.9588 1147.3 15.0846C1147 15.2045 1146.67 15.2643 1146.32 15.2641ZM1149.44 15.1579L1149.44 8.34489L1150.62 8.34558L1150.62 11.2256L1150.46 11.0545C1150.57 10.7606 1150.76 10.5387 1151.01 10.3888C1151.28 10.233 1151.58 10.1551 1151.93 10.1554C1152.29 10.1556 1152.61 10.2337 1152.89 10.3899C1153.17 10.5461 1153.39 10.7652 1153.54 11.0473C1153.7 11.3234 1153.78 11.6444 1153.78 12.0104L1153.77 15.1604L1152.6 15.1597L1152.6 12.2887C1152.6 12.0727 1152.56 11.8867 1152.47 11.7307C1152.39 11.5746 1152.27 11.4546 1152.12 11.3705C1151.98 11.2804 1151.81 11.2353 1151.61 11.2352C1151.42 11.235 1151.25 11.2799 1151.1 11.3699C1150.95 11.4538 1150.83 11.5737 1150.74 11.7297C1150.66 11.8856 1150.62 12.0716 1150.62 12.2876L1150.62 15.1586L1149.44 15.1579ZM1156.26 15.2699C1155.91 15.2697 1155.62 15.2125 1155.37 15.0984C1155.11 14.9842 1154.92 14.8221 1154.78 14.612C1154.64 14.3959 1154.57 14.1469 1154.57 13.8649C1154.57 13.5949 1154.63 13.3549 1154.76 13.145C1154.88 12.9291 1155.06 12.7492 1155.31 12.6053C1155.57 12.4615 1155.88 12.3597 1156.27 12.2999L1157.87 12.0398L1157.87 12.9398L1156.49 13.173C1156.26 13.2149 1156.08 13.2898 1155.97 13.3977C1155.86 13.5056 1155.8 13.6466 1155.8 13.8206C1155.8 13.9886 1155.86 14.1237 1155.99 14.2257C1156.12 14.3218 1156.28 14.3699 1156.47 14.37C1156.72 14.3702 1156.94 14.3193 1157.12 14.2174C1157.31 14.1095 1157.46 13.9626 1157.56 13.7766C1157.67 13.5907 1157.72 13.3867 1157.73 13.1647L1157.73 11.9047C1157.73 11.6947 1157.64 11.5207 1157.47 11.3826C1157.31 11.2385 1157.1 11.1664 1156.83 11.1662C1156.57 11.1661 1156.35 11.2349 1156.15 11.3728C1155.96 11.5047 1155.82 11.6816 1155.73 11.9036L1154.77 11.435C1154.86 11.1771 1155.01 10.9552 1155.22 10.7693C1155.43 10.5774 1155.67 10.4275 1155.95 10.3197C1156.24 10.2119 1156.54 10.158 1156.87 10.1582C1157.27 10.1585 1157.63 10.2337 1157.93 10.3839C1158.24 10.528 1158.48 10.7322 1158.64 10.9963C1158.82 11.2544 1158.9 11.5574 1158.9 11.9054L1158.9 15.1634L1157.79 15.1628L1157.79 14.3258L1158.04 14.3079C1157.91 14.5179 1157.76 14.6948 1157.59 14.8387C1157.41 14.9766 1157.22 15.0844 1156.99 15.1623C1156.77 15.2342 1156.53 15.27 1156.26 15.2699ZM1159.99 15.1641L1160 10.2681L1161.17 10.2688L1161.17 15.1648L1159.99 15.1641ZM1160 9.71907L1160 8.45907L1161.18 8.45976L1161.17 9.71976L1160 9.71907ZM1162.26 15.1654L1162.26 10.2694L1163.37 10.27L1163.37 11.233L1163.28 11.062C1163.39 10.7681 1163.58 10.5462 1163.84 10.3963C1164.1 10.2405 1164.41 10.1627 1164.76 10.1629C1165.12 10.1631 1165.43 10.2413 1165.71 10.3974C1165.99 10.5536 1166.21 10.7727 1166.37 11.0548C1166.52 11.3309 1166.6 11.6519 1166.6 12.0179L1166.6 15.1679L1165.42 15.1672L1165.42 12.2962C1165.42 12.0802 1165.38 11.8942 1165.3 11.7382C1165.21 11.5821 1165.09 11.4621 1164.94 11.378C1164.8 11.2879 1164.63 11.2428 1164.43 11.2427C1164.24 11.2426 1164.07 11.2875 1163.92 11.3774C1163.77 11.4613 1163.65 11.5812 1163.57 11.7372C1163.48 11.8931 1163.44 12.0791 1163.44 12.2951L1163.44 15.1661L1162.26 15.1654Z" fill="white"/>
<rect x="1401.18" y="33.7687" width="60.0244" height="21.5089" rx="10.7545" transform="rotate(0.033533 1401.18 33.7687)" fill="#06101D" stroke="#183244"/>
<path opacity="0.3" d="M1411.06 47.5258L1411.06 40.8208L1413.55 40.8223C1414.01 40.8225 1414.41 40.9068 1414.76 41.075C1415.11 41.2372 1415.39 41.4773 1415.59 41.7955C1415.78 42.1076 1415.88 42.4886 1415.88 42.9386C1415.88 43.4006 1415.77 43.7936 1415.55 44.1174C1415.33 44.4413 1415.04 44.6811 1414.67 44.8369L1416.2 47.5288L1414.82 47.528L1413.17 44.584L1413.96 45.0525L1412.28 45.0515L1412.28 47.5265L1411.06 47.5258ZM1412.28 43.9715L1413.57 43.9723C1413.79 43.9724 1413.98 43.9305 1414.14 43.8466C1414.31 43.7567 1414.43 43.6338 1414.52 43.4778C1414.61 43.3219 1414.66 43.1419 1414.66 42.9379C1414.66 42.7279 1414.61 42.5479 1414.52 42.3978C1414.43 42.2418 1414.31 42.1217 1414.15 42.0376C1413.98 41.9475 1413.79 41.9024 1413.57 41.9023L1412.28 41.9015L1412.28 43.9715ZM1418.96 47.6384C1418.45 47.6381 1418.01 47.5239 1417.63 47.2957C1417.26 47.0674 1416.96 46.7583 1416.75 46.3681C1416.54 45.978 1416.44 45.546 1416.44 45.072C1416.44 44.58 1416.54 44.145 1416.75 43.7671C1416.97 43.3833 1417.26 43.0804 1417.63 42.8586C1418 42.6369 1418.41 42.5261 1418.87 42.5264C1419.25 42.5266 1419.59 42.5898 1419.88 42.716C1420.17 42.8421 1420.42 43.0163 1420.62 43.2384C1420.83 43.4605 1420.98 43.7156 1421.09 44.0037C1421.2 44.2857 1421.25 44.5918 1421.25 44.9218C1421.25 45.0058 1421.25 45.0928 1421.23 45.1828C1421.23 45.2728 1421.21 45.3507 1421.19 45.4167L1417.41 45.4145L1417.41 44.5145L1420.52 44.5163L1419.97 44.939C1420.02 44.663 1420 44.417 1419.92 44.201C1419.84 43.9849 1419.71 43.8139 1419.53 43.6878C1419.35 43.5617 1419.13 43.4985 1418.87 43.4984C1418.62 43.4982 1418.4 43.5611 1418.21 43.687C1418.02 43.8069 1417.87 43.9868 1417.77 44.2267C1417.67 44.4607 1417.64 44.7457 1417.66 45.0817C1417.64 45.3817 1417.68 45.6487 1417.78 45.8827C1417.89 46.1108 1418.04 46.2879 1418.25 46.414C1418.46 46.5401 1418.7 46.6033 1418.97 46.6034C1419.24 46.6036 1419.46 46.5467 1419.65 46.4328C1419.84 46.3189 1419.99 46.166 1420.1 45.9741L1421.05 46.4427C1420.96 46.6766 1420.81 46.8835 1420.6 47.0634C1420.4 47.2433 1420.16 47.3841 1419.87 47.486C1419.6 47.5878 1419.29 47.6386 1418.96 47.6384ZM1423.61 47.6412C1423.27 47.641 1422.97 47.5838 1422.72 47.4696C1422.47 47.3555 1422.27 47.1934 1422.14 46.9833C1422 46.7672 1421.93 46.5182 1421.93 46.2362C1421.93 45.9662 1421.99 45.7262 1422.11 45.5163C1422.23 45.3003 1422.42 45.1205 1422.67 44.9766C1422.92 44.8327 1423.24 44.7309 1423.62 44.6712L1425.22 44.4111L1425.22 45.3111L1423.85 45.5443C1423.61 45.5862 1423.44 45.6611 1423.33 45.769C1423.21 45.8769 1423.15 46.0179 1423.15 46.1919C1423.15 46.3599 1423.22 46.4949 1423.34 46.597C1423.47 46.6931 1423.64 46.7412 1423.83 46.7413C1424.07 46.7414 1424.29 46.6905 1424.48 46.5887C1424.67 46.4808 1424.82 46.3339 1424.92 46.1479C1425.03 45.962 1425.08 45.758 1425.08 45.536L1425.08 44.276C1425.08 44.066 1425 43.892 1424.83 43.7539C1424.67 43.6098 1424.45 43.5376 1424.18 43.5375C1423.93 43.5373 1423.7 43.6062 1423.51 43.7441C1423.31 43.876 1423.17 44.0529 1423.08 44.2748L1422.12 43.8063C1422.22 43.5483 1422.37 43.3264 1422.57 43.1405C1422.78 42.9487 1423.03 42.7988 1423.31 42.691C1423.59 42.5831 1423.9 42.5293 1424.23 42.5295C1424.63 42.5297 1424.98 42.605 1425.29 42.7551C1425.59 42.8993 1425.83 43.1035 1426 43.3675C1426.17 43.6257 1426.26 43.9287 1426.26 44.2767L1426.26 47.5347L1425.14 47.534L1425.14 46.697L1425.39 46.6792C1425.27 46.8891 1425.12 47.066 1424.94 47.2099C1424.77 47.3478 1424.57 47.4557 1424.35 47.5336C1424.13 47.6055 1423.88 47.6413 1423.61 47.6412ZM1427.35 47.5353L1427.35 40.7223L1428.53 40.723L1428.53 47.536L1427.35 47.5353ZM1429.86 45.6108L1429.86 44.5758L1433.69 44.578L1433.68 45.613L1429.86 45.6108ZM1437.24 47.5951C1436.69 47.5948 1436.26 47.4446 1435.96 47.1444C1435.66 46.8382 1435.51 46.4091 1435.51 45.8571L1435.51 43.6971L1434.66 43.6966L1434.66 42.6436L1434.75 42.6437C1434.99 42.6438 1435.18 42.5809 1435.31 42.455C1435.44 42.3291 1435.51 42.1461 1435.51 41.9061L1435.51 41.5281L1436.69 41.5288L1436.69 42.6448L1437.81 42.6455L1437.81 43.6985L1436.69 43.6978L1436.69 45.7948C1436.69 45.9568 1436.71 46.0948 1436.77 46.2089C1436.83 46.3229 1436.92 46.4099 1437.04 46.47C1437.16 46.5301 1437.32 46.5602 1437.51 46.5603C1437.56 46.5603 1437.6 46.5573 1437.66 46.5514C1437.72 46.5454 1437.78 46.5394 1437.83 46.5335L1437.83 47.5415C1437.74 47.5534 1437.65 47.5654 1437.54 47.5773C1437.43 47.5892 1437.33 47.5952 1437.24 47.5951ZM1438.73 47.542L1438.73 42.646L1439.91 42.6467L1439.91 47.5427L1438.73 47.542ZM1438.73 42.097L1438.73 40.837L1439.91 40.8377L1439.91 42.0977L1438.73 42.097ZM1441 47.5433L1441 42.6473L1442.11 42.648L1442.11 43.782L1441.98 43.5929C1442.07 43.239 1442.25 42.9751 1442.52 42.8012C1442.79 42.6274 1443.11 42.5406 1443.48 42.5408C1443.88 42.541 1444.23 42.6462 1444.54 42.8564C1444.84 43.0666 1445.04 43.3427 1445.13 43.6847L1444.8 43.7116C1444.95 43.3216 1445.17 43.0308 1445.47 42.8389C1445.77 42.6411 1446.12 42.5423 1446.51 42.5426C1446.86 42.5428 1447.17 42.6209 1447.44 42.7771C1447.71 42.9333 1447.93 43.1524 1448.08 43.4345C1448.24 43.7106 1448.32 44.0316 1448.32 44.3976L1448.31 47.5476L1447.14 47.5469L1447.14 44.6759C1447.14 44.4599 1447.1 44.2739 1447.02 44.1179C1446.94 43.9618 1446.83 43.8417 1446.7 43.7577C1446.56 43.6676 1446.39 43.6225 1446.19 43.6224C1446.01 43.6223 1445.84 43.6672 1445.7 43.7571C1445.55 43.841 1445.44 43.9609 1445.36 44.1169C1445.29 44.2728 1445.25 44.4588 1445.25 44.6748L1445.25 47.5458L1444.07 47.5451L1444.07 44.6741C1444.07 44.4581 1444.03 44.2721 1443.95 44.1161C1443.87 43.96 1443.76 43.8399 1443.62 43.7559C1443.48 43.6658 1443.32 43.6207 1443.12 43.6206C1442.94 43.6205 1442.77 43.6654 1442.63 43.7553C1442.48 43.8392 1442.37 43.9591 1442.3 44.1151C1442.22 44.271 1442.18 44.457 1442.18 44.673L1442.18 47.544L1441 47.5433ZM1451.63 47.6576C1451.13 47.6573 1450.69 47.543 1450.31 47.3148C1449.93 47.0866 1449.64 46.7774 1449.43 46.3873C1449.22 45.9971 1449.11 45.5651 1449.12 45.0911C1449.12 44.5991 1449.22 44.1641 1449.43 43.7863C1449.65 43.4024 1449.94 43.0996 1450.3 42.8778C1450.68 42.656 1451.09 42.5452 1451.55 42.5455C1451.93 42.5457 1452.27 42.6089 1452.55 42.7351C1452.85 42.8613 1453.1 43.0354 1453.3 43.2575C1453.51 43.4796 1453.66 43.7347 1453.77 44.0228C1453.88 44.3049 1453.93 44.6109 1453.93 44.9409C1453.93 45.0249 1453.92 45.1119 1453.91 45.2019C1453.91 45.2919 1453.89 45.3699 1453.87 45.4359L1450.09 45.4336L1450.09 44.5336L1453.2 44.5355L1452.64 44.9581C1452.7 44.6822 1452.68 44.4362 1452.6 44.2201C1452.52 44.0041 1452.39 43.833 1452.2 43.7069C1452.02 43.5808 1451.8 43.5177 1451.55 43.5175C1451.3 43.5174 1451.08 43.5802 1450.89 43.7061C1450.7 43.826 1450.55 44.0059 1450.45 44.2459C1450.35 44.4798 1450.32 44.7648 1450.34 45.1008C1450.31 45.4008 1450.35 45.6678 1450.46 45.9019C1450.56 46.1299 1450.72 46.307 1450.92 46.4331C1451.13 46.5593 1451.37 46.6224 1451.64 46.6226C1451.91 46.6227 1452.14 46.5658 1452.33 46.452C1452.52 46.3381 1452.67 46.1852 1452.78 45.9932L1453.73 46.4618C1453.64 46.6957 1453.49 46.9026 1453.28 47.0825C1453.08 47.2624 1452.83 47.4033 1452.55 47.5051C1452.28 47.6069 1451.97 47.6577 1451.63 47.6576Z" fill="white"/>
<defs>
<linearGradient id="paint0_linear_54_205" x1="1563.27" y1="44.6182" x2="-209.203" y2="43.5808" gradientUnits="userSpaceOnUse">
<stop stop-color="#3C7DAA" stop-opacity="0"/>
<stop offset="0.468795" stop-color="#3C7DAA"/>
<stop offset="1" stop-color="#183244" stop-opacity="0"/>
</linearGradient>
</defs>
</svg>
