<svg width="424" height="71" viewBox="0 0 424 71" fill="none" xmlns="http://www.w3.org/2000/svg">
<path d="M429.252 10.8662H128.86C112.609 10.8662 99.4349 24.0401 99.4349 40.291V40.291C99.4349 56.5419 86.2609 69.7158 70.0101 69.7158H0.833344" stroke="url(#paint0_linear_70_472)" stroke-width="2"/>
<rect x="188.796" y="0.581299" width="60.0244" height="21.5089" rx="10.7545" fill="#06101D" stroke="#183244"/>
<path opacity="0.3" d="M211.055 15.0928V9.46777H209.318V8.38777H213.998V9.46777H212.288V15.0928H211.055ZM217.776 15.2008C217.284 15.2008 216.825 15.1138 216.399 14.9398C215.973 14.7658 215.601 14.5228 215.283 14.2108C214.965 13.8988 214.716 13.5328 214.536 13.1128C214.362 12.6868 214.275 12.2278 214.275 11.7358C214.275 11.2378 214.362 10.7788 214.536 10.3588C214.71 9.93877 214.956 9.57277 215.274 9.26077C215.592 8.94877 215.964 8.70877 216.39 8.54077C216.816 8.36677 217.278 8.27977 217.776 8.27977C218.274 8.27977 218.736 8.36677 219.162 8.54077C219.588 8.71477 219.96 8.95777 220.278 9.26977C220.596 9.57577 220.842 9.93877 221.016 10.3588C221.196 10.7788 221.286 11.2378 221.286 11.7358C221.286 12.2278 221.196 12.6868 221.016 13.1128C220.836 13.5328 220.587 13.8988 220.269 14.2108C219.951 14.5228 219.579 14.7658 219.153 14.9398C218.733 15.1138 218.274 15.2008 217.776 15.2008ZM217.776 14.0848C218.106 14.0848 218.409 14.0278 218.685 13.9138C218.961 13.7938 219.201 13.6288 219.405 13.4188C219.615 13.2088 219.774 12.9598 219.882 12.6718C219.996 12.3838 220.053 12.0718 220.053 11.7358C220.053 11.3998 219.996 11.0908 219.882 10.8088C219.774 10.5208 219.615 10.2718 219.405 10.0618C219.201 9.84577 218.961 9.68077 218.685 9.56677C218.409 9.45277 218.106 9.39577 217.776 9.39577C217.452 9.39577 217.152 9.45277 216.876 9.56677C216.6 9.68077 216.357 9.84577 216.147 10.0618C215.943 10.2718 215.784 10.5208 215.67 10.8088C215.556 11.0908 215.499 11.3998 215.499 11.7358C215.499 12.0718 215.556 12.3838 215.67 12.6718C215.784 12.9598 215.943 13.2088 216.147 13.4188C216.357 13.6288 216.6 13.7938 216.876 13.9138C217.152 14.0278 217.452 14.0848 217.776 14.0848ZM222.374 15.0928V8.38777H223.328L227.018 13.3558L226.523 13.4548V8.38777H227.747V15.0928H226.784L223.148 10.0888L223.598 9.98977V15.0928H222.374Z" fill="white"/>
<defs>
<linearGradient id="paint0_linear_70_472" x1="429.252" y1="40.291" x2="-41.5435" y2="40.291" gradientUnits="userSpaceOnUse">
<stop stop-color="#183244"/>
<stop offset="0.575" stop-color="#3C7DAA"/>
<stop offset="1" stop-color="#3C7DAA" stop-opacity="0"/>
</linearGradient>
</defs>
</svg>
