<svg xmlns="http://www.w3.org/2000/svg" width="138" height="53" viewBox="0 0 138 53" fill="none"><path d="M26.7419 52.9996L40.6436 46.0875L41.5037 43.6693L42.9892 39.4874L33.2619 34.6499L26.7419 52.9996Z" fill="#5EC2EE"></path>
        <path d="M29.9058 2.24916L26.5543 0.589844L23.2029 2.24916L0.849304 13.3678L4.7765 24.4441L26.5489 13.6188H26.5543H26.5597L48.3321 24.4441L52.2593 13.3678L29.9058 2.24916Z" fill="#5EC2EE"></path>
        <path d="M6.18622 28.4113L10.1188 39.4875L11.6035 43.6694L12.4645 46.0877L26.3662 52.9998L19.8454 34.6501L26.5545 31.3199L42.9901 39.4875L46.9227 28.4113L26.5545 18.2901L6.18622 28.4113Z" fill="#5EC2EE"></path>
        <path d="M26.7417 52.9996L33.2617 34.6499L42.989 39.4874L40.6434 46.0875L26.7417 52.9996Z" fill="#00579B"></path>
        <path d="M42.9895 39.4874L33.2622 34.6499L31.8101 38.7646L41.5041 43.6693L42.9895 39.4874Z" fill="url(#paint0_linear_80_721)"></path>
        <path d="M42.9898 39.4875L26.5542 31.3199V18.2901L46.9225 28.4113L42.9898 39.4875Z" fill="#5EC2EE"></path>
        <path d="M29.9056 2.24916L52.2592 13.3678L48.332 24.4441L26.5596 13.6188H26.5542V0.589844L29.9056 2.24916Z" fill="#5EC2EE"></path>
        <path d="M26.3662 52.9997L19.8454 34.65L10.1188 39.4875L12.4645 46.0877L26.3662 52.9997Z" fill="#00579B"></path>
        <path d="M10.1188 39.4875L19.8454 34.65L21.2983 38.7647L11.6035 43.6694L10.1188 39.4875Z" fill="url(#paint1_linear_80_721)"></path>
        <path d="M10.1188 39.4875L26.5545 31.3199V18.2901L6.18622 28.4113L10.1188 39.4875Z" fill="#5EC2EE"></path>
        <path d="M23.2029 2.24916L0.849304 13.3678L4.7765 24.4441L26.5489 13.6188H26.5543V0.589844L23.2029 2.24916Z" fill="#5EC2EE"></path>
        <path d="M85.8583 14.4795V38.7023H81.0001V28.3955H70.6236V38.7023H65.7653V14.4795H70.6236V24.4393H81.0001V14.4795H85.8583Z" fill="#5EC2EE"></path>
        <path d="M105.879 30.5479H91.8242C91.9394 31.9358 92.4253 33.0235 93.2819 33.8102C94.1378 34.597 95.1909 34.9901 96.4399 34.9901C98.2445 34.9901 99.5287 34.2155 100.292 32.665H105.532C104.977 34.5164 103.913 36.0371 102.34 37.2284C100.766 38.4205 98.8348 39.0155 96.5442 39.0155C94.6928 39.0155 93.0332 38.6048 91.564 37.7834C90.0948 36.9628 88.9495 35.7999 88.1282 34.2955C87.3069 32.7917 86.8962 31.0569 86.8962 29.0902C86.8962 27.1236 87.3008 25.3542 88.1106 23.8498C88.9204 22.346 90.0541 21.1899 91.5111 20.3794C92.9688 19.5696 94.6461 19.165 96.5429 19.165C98.4397 19.165 100.007 19.5588 101.453 20.3449C102.899 21.1316 104.021 22.2478 104.819 23.6939C105.618 25.1401 106.017 26.7997 106.017 28.6742C106.017 29.3681 105.97 29.9929 105.878 30.5479H105.879ZM100.986 27.2863C100.963 26.0366 100.512 25.0364 99.633 24.2842C98.7534 23.5326 97.678 23.1565 96.406 23.1565C95.2024 23.1565 94.1907 23.5211 93.3693 24.2496C92.548 24.9781 92.0445 25.9906 91.8595 27.2863H100.986Z" fill="#5EC2EE"></path>
        <path d="M114.492 20.0676C115.498 19.4896 116.649 19.2002 117.944 19.2002V24.3017H116.66C115.133 24.3017 113.982 24.6609 113.207 25.3772C112.432 26.0948 112.044 27.3438 112.044 29.1254V38.7036H107.186V19.478H112.044V22.4625C112.669 21.4446 113.485 20.6464 114.491 20.0683L114.492 20.0676Z" fill="#5EC2EE"></path>
        <path d="M122.125 37.7834C120.645 36.9628 119.482 35.7999 118.637 34.2955C117.792 32.7917 117.371 31.0569 117.371 29.0902C117.371 27.1236 117.804 25.3888 118.672 23.885C119.539 22.3813 120.725 21.2191 122.229 20.397C123.733 19.5764 125.41 19.165 127.261 19.165C129.111 19.165 130.789 19.5764 132.292 20.397C133.796 21.2184 134.982 22.3813 135.85 23.885C136.717 25.3895 137.151 27.1243 137.151 29.0902C137.151 31.0562 136.705 32.7924 135.814 34.2955C134.923 35.7999 133.72 36.9621 132.205 37.7834C130.69 38.6048 128.995 39.0155 127.121 39.0155C125.247 39.0155 123.604 38.6048 122.124 37.7834H122.125ZM129.604 34.1396C130.379 33.712 130.997 33.0695 131.461 32.2136C131.924 31.3577 132.155 30.3168 132.155 29.0902C132.155 27.2632 131.674 25.8577 130.715 24.8738C129.755 23.8905 128.581 23.3991 127.192 23.3991C125.804 23.3991 124.642 23.8911 123.704 24.8738C122.767 25.8571 122.299 27.2626 122.299 29.0902C122.299 30.9179 122.756 32.3234 123.67 33.3067C124.583 34.29 125.735 34.7813 127.123 34.7813C128.001 34.7813 128.828 34.5679 129.603 34.1396H129.604Z" fill="#5EC2EE"></path>
        <defs><linearGradient id="paint0_linear_80_721" x1="38.3037" y1="36.8959" x2="36.2937" y2="40.7001" gradientUnits="userSpaceOnUse"><stop stop-color="#103153"></stop>
                <stop offset="1" stop-color="#00579B"></stop></linearGradient>
            <linearGradient id="paint1_linear_80_721" x1="14.8047" y1="36.896" x2="16.8147" y2="40.7003" gradientUnits="userSpaceOnUse"><stop stop-color="#103153"></stop>
                <stop offset="1" stop-color="#00579B"></stop></linearGradient></defs></svg>