<svg width="1512" height="76" viewBox="0 0 1512 76" fill="none" xmlns="http://www.w3.org/2000/svg">
<path d="M-33 60.3682H267.392C283.643 60.3682 296.817 47.1942 296.817 30.9434V30.9434C296.817 14.6925 309.991 1.51855 326.242 1.51855H492.281" stroke="url(#paint0_linear_51_174)" stroke-width="2"/>
<path d="M1600.8 64.5947H1300.4C1284.15 64.5947 1270.98 51.4208 1270.98 35.1699V35.1699C1270.98 18.9191 1257.81 5.74512 1241.55 5.74512H1024.46" stroke="url(#paint1_linear_51_174)" stroke-width="2"/>
<rect x="147" y="50.9753" width="46.7842" height="16.7645" rx="8.38224" fill="#06101D" stroke="#183244"/>
<path opacity="0.3" d="M162.625 63.1145V56.4095H167.08V57.4895H163.849V59.2085H166.9V60.2885H163.849V62.0345H167.08V63.1145H162.625ZM169.165 63.1145V57.4895H167.428V56.4095H172.108V57.4895H170.398V63.1145H169.165ZM172.855 63.1145V56.4095H174.079V59.3345H176.932V56.4095H178.165V63.1145H176.932V60.4145H174.079V63.1145H172.855Z" fill="white"/>
<rect x="1360.34" y="53.3706" width="60.0244" height="21.5089" rx="10.7545" fill="#06101D" stroke="#183244"/>
<path opacity="0.3" d="M1382.6 67.8821V62.2571H1380.86V61.1771H1385.54V62.2571H1383.83V67.8821H1382.6ZM1389.32 67.9901C1388.83 67.9901 1388.37 67.9031 1387.94 67.7291C1387.52 67.5551 1387.14 67.3121 1386.83 67.0001C1386.51 66.6881 1386.26 66.3221 1386.08 65.9021C1385.91 65.4761 1385.82 65.0171 1385.82 64.5251C1385.82 64.0271 1385.91 63.5681 1386.08 63.1481C1386.25 62.7281 1386.5 62.3621 1386.82 62.0501C1387.14 61.7381 1387.51 61.4981 1387.93 61.3301C1388.36 61.1561 1388.82 61.0691 1389.32 61.0691C1389.82 61.0691 1390.28 61.1561 1390.71 61.3301C1391.13 61.5041 1391.5 61.7471 1391.82 62.0591C1392.14 62.3651 1392.39 62.7281 1392.56 63.1481C1392.74 63.5681 1392.83 64.0271 1392.83 64.5251C1392.83 65.0171 1392.74 65.4761 1392.56 65.9021C1392.38 66.3221 1392.13 66.6881 1391.81 67.0001C1391.49 67.3121 1391.12 67.5551 1390.7 67.7291C1390.28 67.9031 1389.82 67.9901 1389.32 67.9901ZM1389.32 66.8741C1389.65 66.8741 1389.95 66.8171 1390.23 66.7031C1390.5 66.5831 1390.74 66.4181 1390.95 66.2081C1391.16 65.9981 1391.32 65.7491 1391.43 65.4611C1391.54 65.1731 1391.6 64.8611 1391.6 64.5251C1391.6 64.1891 1391.54 63.8801 1391.43 63.5981C1391.32 63.3101 1391.16 63.0611 1390.95 62.8511C1390.74 62.6351 1390.5 62.4701 1390.23 62.3561C1389.95 62.2421 1389.65 62.1851 1389.32 62.1851C1389 62.1851 1388.7 62.2421 1388.42 62.3561C1388.14 62.4701 1387.9 62.6351 1387.69 62.8511C1387.49 63.0611 1387.33 63.3101 1387.21 63.5981C1387.1 63.8801 1387.04 64.1891 1387.04 64.5251C1387.04 64.8611 1387.1 65.1731 1387.21 65.4611C1387.33 65.7491 1387.49 65.9981 1387.69 66.2081C1387.9 66.4181 1388.14 66.5831 1388.42 66.7031C1388.7 66.8171 1389 66.8741 1389.32 66.8741ZM1393.92 67.8821V61.1771H1394.87L1398.56 66.1451L1398.07 66.2441V61.1771H1399.29V67.8821H1398.33L1394.69 62.8781L1395.14 62.7791V67.8821H1393.92Z" fill="white"/>
<defs>
<linearGradient id="paint0_linear_51_174" x1="-33" y1="30.9434" x2="332.492" y2="30.9434" gradientUnits="userSpaceOnUse">
<stop stop-color="#183244"/>
<stop offset="0.60784" stop-color="#3C7DAA"/>
<stop offset="1" stop-color="#3C7DAA" stop-opacity="0"/>
</linearGradient>
<linearGradient id="paint1_linear_51_174" x1="1600.8" y1="35.1699" x2="1024.46" y2="35.1699" gradientUnits="userSpaceOnUse">
<stop stop-color="#183244"/>
<stop offset="0.575" stop-color="#3C7DAA"/>
<stop offset="1" stop-color="#3C7DAA" stop-opacity="0"/>
</linearGradient>
</defs>
</svg>
