<svg xmlns="http://www.w3.org/2000/svg" width="25" height="25" viewBox="0 0 25 25" fill="none">
  <rect x="0.504883" y="0.980469" width="24" height="24" rx="12" fill="black"/>
  <path d="M7.96831 7.67553C8.05279 7.59443 8.1643 7.54712 8.2792 7.54712H19.0048C19.2008 7.54712 19.2988 7.78366 19.1602 7.92221L17.0414 10.041C16.9603 10.1221 16.8488 10.1694 16.7306 10.1694H6.005C5.809 10.1694 5.71101 9.93283 5.84955 9.79428L7.96831 7.67553Z" fill="url(#paint0_linear_673_7602)"/>
  <path d="M17.0414 11.7978C16.9603 11.7167 16.8488 11.6694 16.7306 11.6694H6.005C5.809 11.6694 5.71101 11.906 5.84955 12.0445L7.96831 14.1633C8.04941 14.2444 8.16092 14.2917 8.2792 14.2917H19.0048C19.2008 14.2917 19.2988 14.0551 19.1602 13.9166L17.0414 11.7978Z" fill="url(#paint1_linear_673_7602)"/>
  <path d="M7.96831 15.9199C8.04941 15.8388 8.16092 15.7915 8.2792 15.7915H19.0048C19.2008 15.7915 19.2988 16.028 19.1602 16.1666L17.0414 18.2853C16.9603 18.3664 16.8488 18.4138 16.7306 18.4138H6.005C5.809 18.4138 5.71101 18.1772 5.84955 18.0387L7.96831 15.9199Z" fill="url(#paint2_linear_673_7602)"/>
  <defs>
    <linearGradient id="paint0_linear_673_7602" x1="14.7344" y1="4.5869" x2="7.3115" y2="18.8048" gradientUnits="userSpaceOnUse">
      <stop stop-color="#00FFA3"/>
      <stop offset="1" stop-color="#DC1FFF"/>
    </linearGradient>
    <linearGradient id="paint1_linear_673_7602" x1="16.347" y1="5.62108" x2="8.92402" y2="19.839" gradientUnits="userSpaceOnUse">
      <stop stop-color="#00FFA3"/>
      <stop offset="1" stop-color="#DC1FFF"/>
    </linearGradient>
    <linearGradient id="paint2_linear_673_7602" x1="17.9802" y1="6.61512" x2="10.5572" y2="20.833" gradientUnits="userSpaceOnUse">
      <stop stop-color="#00FFA3"/>
      <stop offset="1" stop-color="#DC1FFF"/>
    </linearGradient>
  </defs>
</svg>